<?xml version="1.0" encoding="UTF-8"?>
<svg id="Capa_1" data-name="Capa 1" xmlns="http://www.w3.org/2000/svg" viewBox="0 0 1253 528">
  <defs>
    <style>
      .cls-1 {
        fill: #f2f2f2;
      }

      .cls-1, .cls-2, .cls-3, .cls-4, .cls-5, .cls-6, .cls-7, .cls-8, .cls-9, .cls-10, .cls-11, .cls-12 {
        stroke-width: 0px;
      }

      .cls-2 {
        fill: #0b3d60;
      }

      .cls-3 {
        fill: #0c3e60;
      }

      .cls-4 {
        fill: #c47477;
      }

      .cls-5 {
        fill: #dca9ab;
      }

      .cls-6 {
        fill: #abbac7;
      }

      .cls-7 {
        fill: #a21f27;
      }

      .cls-8 {
        fill: #93a6b6;
      }

      .cls-9 {
        fill: #fdfdfd;
      }

      .cls-10 {
        fill: #91a4b5;
      }

      .cls-11 {
        fill: #fefefe;
      }

      .cls-12 {
        fill: #fcfcfd;
      }
    </style>
  </defs>
  <g id="rkw9zZ.tif">
    <g>
      <path class="cls-3" d="m899.64,527.85c-9.09,0-18.18,0-27.26-.01-1.16,0-2.32-.17-3.49-.25-6.14-.44-6.53-5.2-5.17-9.23.71-2.11,2.78-2.68,4.94-1.45,2.31,1.32,4.59,2.71,6.83,4.14,1.43.91,2.18.67,2.72-1.01,1.74-5.47,3.57-10.92,5.39-16.36.37-1.1.3-2.04-.26-3.09-4.45-8.38-3.91-16.47,1.52-24.24.91-1.3,1.13-2.7,1.18-4.25.26-8.24-.44-16.54,1.09-24.72.82-4.34,1.71-8.66,2.64-12.98,1.24-5.79,1.21-11.53.08-17.37-2.04-10.55-2.4-21.19-.86-31.87,1.39-9.69,1.34-19.46,1.46-29.22.24-18.94.47-37.88-.81-56.8-.59-8.73-2.16-17.41-1.48-26.2.43-5.57.95-11.13,1.5-16.69,1.06-10.57.55-21.18.66-31.77.1-9.85-.15-19.69,0-29.54.14-9.71-.69-19.33-1.99-28.92-1.17-8.62-.57-17.14,1.53-25.56,1-4.01,1.02-7.7-1.35-11.46-2.31-3.67-3.33-7.97-3.87-12.3-.19-1.51-.82-2.61-2.04-3.54-2.73-2.06-5.36-4.25-8.05-6.35-1.62-1.26-2.16-2.76-1.66-4.82,7.79-32.47,15.54-64.94,23.32-97.41.29-1.2.67-2.43,1.28-3.5.85-1.5,2.21-1.45,3.1.04.87,1.45,1.14,3.12,1.53,4.74,7.46,31.35,14.9,62.7,22.36,94.05,1.09,4.6.64,6.11-3.3,8.6-4.58,2.89-7.65,6.72-9.06,12.04-1.19,4.5-2.88,8.86-4.28,13.31-.23.74-1.02,1.61-.39,2.31.63.71,1.56.1,2.34-.12,7.95-2.16,15.88-4.36,23.84-6.48,16.48-4.4,32.93-8.96,49.84-11.5,17.84-2.69,35.73-4.51,53.78-2.27,4.72.59,9.34,1.62,13.86,3.12,7.63,2.53,13.33,7.34,17.21,14.37,2.83,5.12,4.66,10.67,6.92,16.03,1.16,2.76,2.32,5.53,3.71,8.18,4.41,8.37,11.27,13.01,20.8,13.95,9.7.95,19.45,1.35,29.1,2.9,22.1,3.56,42.93,10.68,62.09,22.3,15.39,9.34,23.77,23.59,27.45,40.91,2.4,11.32,3.03,22.79,3.13,34.32.06,6.84.03,13.69.15,20.53.22,12.79,4.16,24.73,8.45,36.58,4.93,13.61,11.05,26.77,15.54,40.55,4.62,14.19,7.36,28.69,7.36,43.69,0,23.76-7.13,45.22-20.51,64.72-2.98,4.34-6.21,8.47-9.66,12.44-.82.95-1.63,2.19-3.07,1.18-1.27-.89-1.63-2.11-.98-3.73,2.4-5.9,3.87-12.03,4.32-18.4,1.15-16.4-5.45-31.96-21.89-39.8-10.3-4.91-21.19-7.38-32.46-8.35-23.28-2.01-46.1.9-68.47,7.21-7.43,2.09-13.4.08-19.16-4-3.58-2.53-6.57-5.87-8.45-9.76-6.41-13.24-18.06-17.91-31.43-20.02-14.43-2.28-28.93-1.97-43.41-.79-29.2,2.37-57.89,7.81-86.33,14.77-2.78.68-3.72,1.89-3.83,4.62-.36,9.02-.39,18.02,1.39,26.92,2.09,10.45,2.18,21.05,2.51,31.64.05,1.74.48,3.22,1.44,4.67,4.96,7.5,5.47,15.38,1.71,23.5-.86,1.87-.97,3.49-.15,5.44,1.97,4.68,3.75,9.43,5.47,14.21.68,1.88,1.52,2.11,3.11,1.04,1.93-1.3,3.92-2.53,5.93-3.7,2.62-1.52,4.92-.54,5.79,2.38,1.42,4.78-.86,7.79-6.24,8-6.75.26-13.5.41-20.25.56-2.92.06-5.84.01-8.75.01,0-.04,0-.08,0-.12Z"/>
      <path class="cls-2" d="m.13,265.45c-.02-5.43,1.56-9.72,5.36-13.68,13.74-14.33,27.28-28.86,40.8-43.39,2.82-3.03,6-4.41,10.13-4.41,38.28-.06,76.55-.09,114.83-.45,9.12-.09,16.37,2.65,22.65,9.38,10.13,10.85,21.3,20.7,30.75,32.2,1.85,2.25,3.58,4.61,5.25,7,3.42,4.88,5.18,10.19,5.42,16.3.91,22.78.87,45.55-.12,68.32-.09,1.97-.7,2.55-2.66,2.53-29.6-.29-59.2-.51-88.81-.76-3.91-.03-4.68-.84-4.67-4.72,0-12.02.04-24.03.04-36.05,0-4.62-2.07-6.7-6.72-6.72-9.09-.04-18.18-.05-27.27-.06-7.01-.01-8.37,1.33-8.36,8.3.05,39.81.11,79.61.17,119.42,0,4.76-.02,9.51.03,14.27.03,3.11,1.31,4.44,4.37,4.49,10.42.17,20.84.32,31.26.42,4.14.04,6.45-2.31,6.46-6.55.04-12.1.09-24.2-.02-36.3-.02-2.5.9-3.15,3.22-3.13,30.02.22,60.04.38,90.06.56,3.18.02,3.4.24,3.39,3.42-.11,24.03-.25,48.07-.31,72.1,0,2.93-.94,5.28-2.95,7.42-15.31,16.29-30.6,32.61-45.82,48.98-1.68,1.81-3.47,2.52-5.91,2.51-41.78-.04-83.56-.03-125.33.03-2.26,0-3.9-.63-5.45-2.34-14.65-16.1-29.54-31.99-44.65-47.67C1.51,472.95,0,468.26,0,462.98"/>
      <path class="cls-2" d="m508.57,204.58c3.79,0,3.81.03,3.8,3.74-.01,26.29-.03,52.57-.04,78.86,0,3.94,0,4-3.82,3.9-6.55-.16-6.31-.01-4.09,5.86,17.47,46.23,34.94,92.47,52.34,138.74.77,2.06,1.69,2.89,3.94,2.7,4.57-.39,9.16-.43,13.73-.78,2.17-.16,2.99.51,2.99,2.75-.04,27.87-.03,55.74.04,83.62,0,2.46-1.08,2.91-3.2,2.91-40.36-.11-80.72-.2-121.07-.23-2.32,0-2.99-.79-2.98-3.07.04-25.03-.01-50.07-.04-75.1,0-3.98-.04-4.02-4.07-4.05-13.59-.1-27.18-.15-40.77-.33-2.4-.03-3.15.73-3.15,3.15.09,25.28.09,50.57.11,75.85,0,3.63-.07,3.72-3.58,3.71-40.19-.03-80.38-.07-120.57-.11-3.55,0-3.64-.09-3.65-3.64-.09-27.37-.17-54.74-.25-82.11,0-3.24.1-3.35,3.44-3.23,4.83.17,9.67.27,14.49.58,2.05.13,2.92-.66,3.62-2.5,17.78-47.19,35.61-94.36,53.42-141.53,1.01-2.67.72-3.09-2.02-3.75-4.8-1.15-4.71.11-4.73-5.93-.07-25.79-.17-51.57-.25-77.36-.01-3.38.03-3.41,3.28-3.41"/>
      <path class="cls-2" d="m616.27,206.57c-.01-2.44,1.14-2.64,3.09-2.64,31.02.04,62.03.03,93.05.03,0-.08,0-.17,0-.25,29.85,0,59.7.07,89.55-.06,6.71-.03,12.01,2.19,16.57,7.14,12.6,13.68,25.36,27.21,38.18,40.69,3.19,3.35,4.67,7.01,4.65,11.66-.09,28.62-.11,57.24.05,85.86.04,6.59-2.01,11.8-6.66,16.55-13.42,13.7-26.57,27.68-39.74,41.63-2.48,2.62-5.22,3.78-8.82,3.75-22.43-.14-44.86-.16-67.28-.21-3.51,0-3.7.18-3.68,3.65.04,6.93.15,13.85.1,20.78-.01,2.26.89,3.12,3.1,3.18,4.75.12,9.49.46,14.24.6,2.19.06,3.02.89,3.02,3.19-.01,27.29.05,54.57.15,81.86,0,2.17-.69,2.91-2.88,2.9-44.52-.11-89.05-.16-133.57-.18-2.12,0-2.94-.59-2.93-2.83.04-27.7,0-55.4,0-83.11,0-2.71.51-3.19,3.29-3.08,5.25.2,10.5.37,15.74.67,2.12.12,2.99-.52,2.99-2.78-.04-47.39-.03-94.79.02-142.18,0-2.46-.99-3.21-3.29-3.18-5.17.08-10.34-.08-15.51.02-2.24.04-3.15-.74-3.15-3.02"/>
      <path class="cls-7" d="m1092.11,419.16c-4.8,1.22-8.38-.86-11.3-4.37-3.5-4.23-5.49-9.21-6.67-14.52-.45-.64-.62-1.37-.59-2.13.21-5.18-.5-10.33-.51-15.49-.03-29.95-.07-59.91.05-89.86.02-4.18-1.35-7.38-4.18-10.27-13.95-14.28-30.88-22.34-50.65-24.75-16.24-1.98-32.27-.34-48.23,2.47-17.58,3.1-35.03,6.8-52.14,11.93-.79.24-1.61.52-2.4-.03-2.74-6.04-2.2-12.24-.83-18.47.8-1.24,2.18-1.48,3.41-1.92,19.09-6.78,38.76-11.01,58.85-13.45,9.76-1.19,19.55-2.13,29.38-1.97,18.05.28,35.42,3.77,51.7,11.83,4.26,2.11,8.32,4.58,12.34,7.12,2.4,1.51,2.69,1.32,2.7-1.57.01-13.01,0-26.02,0-39.03,0-1.5-.08-3,.24-4.49.24-.81.27-1.64.27-2.47,0-9.07.03-18.14-.02-27.21-.01-1.01-.64-2.1.36-2.99,2.69-.32,3.02-2.47,3.48-4.5.69-3.04.71-3.08,3.32-1.31,3.9,2.65,8.07,4.9,11.76,7.86.87,1.28.58,2.74.59,4.14.02,17.27-.26,34.55.1,51.81.26,12.68.33,25.35.43,38.02.04,4.75,2.94,7.68,7.63,7.76,10.16.16,20.33.35,30.48.62,24.11.64,48.11,2.54,71.41,9.45,2.72.81,5.4,1.74,8.09,2.63.95.32,1.9.65,2.49,1.56,2.79,6.24,3.45,12.72,2.17,19.41-.12.64-.4,1.25-.61,1.87-1.31.61-2.45-.09-3.58-.55-17.93-7.31-36.69-11.03-55.87-12.79-15.04-1.38-30.13-1.15-45.21-1.08-4.67.02-9.32-.05-13.94-.98-2.94-.59-3.47-.03-3.58,3.07-.03.92-.01,1.84-.01,2.75,0,34.21.01,68.41-.02,102.62,0,3.12-.07,6.26-.93,9.3Z"/>
      <path class="cls-11" d="m915.49,272.12c20.04-5.98,40.42-10.43,61.08-13.67,9.98-1.56,20-2.53,30.09-2.27,17.57.46,34.22,4.23,49.04,14.27,5.83,3.95,11,8.63,15.76,13.8,2.23,2.43,2.5,5.35,2.46,8.38-.37,27.37-.21,54.73-.14,82.1.02,8.51.24,17.02.36,25.52-5.82-3.39-8.26-8.52-8.22-15.18.12-18.94.08-37.88.13-56.82.02-7.59.11-15.18.15-22.78.01-3-.64-3.48-3.56-3-32.52,5.35-60.34,20.08-84.67,42.05-15.32,13.84-29.39,28.85-42.95,44.37-3.81,4.36-7.99,8.07-14.11,8.62-2.18.2-4.32.12-6.33-.86,0-.61.46-.89.92-1.06,5.2-1.84,8.64-5.79,11.99-9.88,9.82-12.02,20.37-23.41,31.66-34.04,11.83-11.14,23.64-22.33,37.3-31.31,20.16-13.25,42.12-21.83,65.96-25.53,4.85-.75,5.19-1.37,3.08-5.9-3.92-8.44-10.19-11.76-19.31-9.74-11.18,2.47-21.96,6.2-32.46,10.8-19.7,8.62-36.86,21-52.96,35.07-8.75,7.64-16.93,15.84-24.94,24.21-7.09,7.4-13.47,15.46-19.61,23.69-.65.87-1.04,2.16-2.49,2.14-.54-7.56,1.24-14.69,6.28-20.23,15.95-17.52,32.57-34.37,51.51-48.76,20.54-15.6,43.03-27.09,68.21-33.04.73-.17,1.63-.18,1.88-.99.33-1.05-.73-1.41-1.33-1.88-4.46-3.45-9.84-4.32-15.17-5.19-15.71-2.57-31.38-1.56-47.04.65-20.14,2.84-39.96,7.11-59.39,13.15-2.81.87-4.96-1.08-4.35-3.99.2-.95.78-1.82,1.18-2.73Z"/>
      <path class="cls-1" d="m1073.9,210.54c-.06,14.92-.11,29.85-.19,44.77,0,.78.42,1.85-.5,2.28-.86.41-1.5-.49-2.16-.93-14.96-10.06-31.36-16.36-49.25-18.46-8.45-.99-16.96-1.18-25.53-.74-26.59,1.37-52.45,6.15-77.59,14.9-1.33.46-2.68.87-4.02,1.31-1.47-4.93.93-9.41,5.66-10.7,18.52-5.05,37.26-9.06,56.34-11.3,5.45-.64,10.91-1.23,16.4-1.26,2.72-.41,5.48.16,8.19-.32,1.31,0,2.62,0,3.92,0,2.55.49,5.15-.09,7.7.31,9.09.64,18.14,1.58,26.99,3.9.63.17,1.31.18,1.97.19,1.28.02,1.55-.39.96-1.67-3.82-8.22-8.45-15.92-14.05-23.07-10.29-13.16-23.38-22.69-38.4-29.61-9.8-4.52-20.09-7.72-30.73-9.67-8.43-1.55-16.88-2.83-25.48-3.1-2.46-.08-4.96-.3-7.44-.51-3.06-.55-6.17.12-9.23-.37-3.35-1.74-4.07-4.32-2.21-7.81.86-.82,1.93-1,3.03-.82,5.12.84,10.3.38,15.45.8,13.58,1.12,26.97,3.13,40.05,7.01,15.65,4.65,30.16,11.57,43.13,21.59,12.75,9.85,22.55,22.13,30.11,36.29,1.81,3.39,3.39,6.88,5.13,10.3,2.5,4.93,6.56,8.11,11.51,10.29,1.02.45,2.19,1.11,3.14-.22.53-3.06.39-6.11.05-9.16-.44-4.14-.56-8.3-1.51-12.39-1.21-5.21-3.58-9.86-6.29-14.38-11.48-19.13-26.7-34.49-46.17-45.46-15.32-8.63-31.76-14.22-49.01-17.49-8.36-1.58-16.77-2.65-25.27-3.09-3.49-.18-6.98-.4-10.48-.44-.81,0-1.7.08-2.26-.75,9.58-3.21,19.48-4.18,29.51-4.09,23.14.19,43.96,7.97,63.61,19.58,18.29,10.8,32.94,25.29,44.18,43.3.56.89.85,2.66,2.66,1.46.09-.23.2-.45.21-.71.02-12.23.02-24.47,0-36.7,0-.26-.1-.49-.17-.72v-9c6.05,4.15,10.14,15.92,8.06,23.65-.31.84.34,1.57.29,2.38-.41,4.31-.1,8.63-.17,12.95-.1,5.9.13,11.8-.11,17.7Z"/>
      <path class="cls-11" d="m1092.11,419.16c-.01-2.5-.05-5-.04-7.5.11-35.8.23-71.6.35-107.41.01-4.27.05-4.4,4.11-3.63,4.61.88,9.24,1.01,13.91.99,13.01-.04,26.02-.24,39.01.59,22.68,1.45,44.73,5.79,65.79,14.6,2.48,3.11,4.16,6.6,4.94,10.51.12.58.31,1.22-.21,1.63-.54.43-1.1,0-1.62-.26-2.66-1.37-5.34-2.71-7.99-4.11-14.35-7.58-29.86-11.09-45.82-12.93-3.3-.38-6.62-.73-10.21-.57.6,1.27,1.79,1.54,2.71,2.05,13.29,7.25,26.72,14.24,39.48,22.43,11.39,7.31,22.15,15.38,31.31,25.47,10.83,11.94,15.6,26.11,16,41.99.03,1.25.09,2.5.14,3.74.02,1.17.71,2.4-.15,3.53-.95-.23-.95-.96-1.03-1.59-1.74-14.8-8.6-27.21-18.01-38.39-10.97-13.02-24.35-23.18-38.61-32.28-8.73-5.57-17.76-10.61-27.02-15.19-10.29-5.1-20.52-10.44-31.89-12.98-8.17-1.82-16.33-2.11-24.54-.51-1.29.25-2.81.43-3.01,2.13-.18,1.53,1.08,2.11,2.19,2.72,11.78,6.43,23.71,12.58,35.56,18.88,12.81,6.81,26.14,12.6,38.55,20.17,10.94,6.67,21.22,14.18,30.05,23.52,13.34,14.1,21.79,30.58,24.04,50.06.65,5.67.26,11.33.38,16.99.02.8.07,1.72-.95,2.1-1.5-2.09-3-4.19-4.51-6.28-1.84-2.54-2.21-5.48-2.5-8.49-2.29-23.67-13.39-42.55-31.4-57.66-9.36-7.85-19.67-14.26-30.49-19.85-19.21-9.92-38.45-19.77-57.68-29.65-2.92-1.5-3.18-1.33-3.18,1.99,0,29.52,0,59.04,0,88.56,0,4.82-3.44,6.86-7.67,4.6Z"/>
      <path class="cls-7" d="m1229.54,445.95c1.02-8.26.59-16.48-.9-24.63-4.21-22.99-17.06-40.52-34.83-54.9-11.27-9.11-23.74-16.27-36.68-22.68-18.57-9.19-36.92-18.81-55.12-28.72-.37-.2-.72-.41-1.09-.6-1.28-.65-2.25-1.56-2.02-3.11.22-1.53,1.33-2.2,2.78-2.45,5.52-.94,11.06-1.44,16.67-.99,9.17.72,17.77,3.46,26.07,7.26,22.16,10.16,43.56,21.59,62.6,37.03,11.75,9.52,22.11,20.29,29.25,33.81,3.93,7.43,6.53,15.29,7.39,24.09.14-1.35.24-2.32.34-3.29,1.83,4.58,1.28,9.31.89,14.04-.49,5.97-.69,11.99-1.56,17.91-1.25,8.56-5.21,15.92-11.15,22.2-.34.36-.69.89-1.22.73-.72-.21-.54-.94-.57-1.5-.28-4.73-.56-9.47-.83-14.2Z"/>
      <path class="cls-7" d="m913.71,375.12c6.4-8.22,12.68-16.54,19.77-24.19,19.23-20.77,39.99-39.72,64.74-53.81,15.21-8.66,31.41-14.85,48.5-18.65,10.99-2.45,18.15,4.89,20.51,13.31.6,2.14-.1,3.03-2.28,3.33-15.01,2.08-29.44,6.19-43.33,12.26-18.61,8.12-34.82,19.78-49.77,33.4-16.74,15.24-32.6,31.31-46.84,48.93-2.81,3.48-6.52,5.31-10.44,6.98-.81-.28-.81-.97-.81-1.64-.02-6.64-.03-13.28-.04-19.92Z"/>
      <path class="cls-7" d="m1067.36,244.51c-.4,1.45-1.49,1.18-2.41.82-5.63-2.21-10.5-5.34-13.25-11.04-3.77-7.81-7.63-15.56-12.61-22.71-9.19-13.2-20.71-23.91-34.54-32.05-18.81-11.07-39.34-16.8-60.9-19.26-9.44-1.08-18.9-1.7-28.41-1.61-.8-4.08-.96-8.23-1.16-12.37-.05-1.06.42-1.78,1.39-2.1,3.45-1.15,6.76-2.75,10.37-3.45,9.83.23,19.65.67,29.38,2.16,29.66,4.55,57.06,14.41,79.82,34.77,11.89,10.64,21.5,23.09,28.51,37.47,2.97,6.09,3.48,12.71,3.79,19.35.26,3.33.24,6.67,0,10Z"/>
      <path class="cls-11" d="m1213.68,295.54c-8.51-2.76-17.04-5.43-25.83-7.19-10.27-2.05-20.63-3.4-31.06-4.33-18.2-1.62-36.45-1.44-54.69-1.82-6.32-.13-9.42-3.07-9.44-9.3-.12-30.36-.19-60.72-.28-91.08,0-.75.05-1.5.07-2.25,1.78.37,3.58.7,5.34,1.13,1.68.41,2.07,1.65,2.06,3.24-.05,7.09-.05,14.18-.06,21.28-.03,14.6-.05,29.2-.07,43.8,0,3.88,1.02,4.54,4.49,2.85,20.14-9.77,40.44-19.18,61.79-26.05,8.7-2.8,17.38-5.76,26.49-7.06,2.59-.37,5.16-.36,7.64.58,2.54.97,4.13,2.74,4.38,5.54-1.01,1.13-2.46.95-3.72,1.12-16.95,2.29-33.19,7.2-49.1,13.3-16.74,6.42-32.88,14.21-49.16,21.68-1.21.55-2.22,1.31-2.36,2.68-.25,2.57-.73,5.11-.73,7.71,0,1.81.78,2.73,2.54,3.1,8.08,1.7,15.55,1.09,23.11-3.11,17.83-9.9,36.75-17.34,56.38-22.93,8.02-2.28,16.11-4.26,24.3-5.8,1.33-.25,2.72-.93,4.1-.08.74.85,1.03,1.9,1.26,2.95.6,2.82-.48,4.4-3.43,4.93-19.48,3.52-38.28,9.25-56.43,17.12-4.12,1.78-8.17,3.72-12.22,5.65-.9.43-2.38.66-1.97,2.12.35,1.26,1.67.83,2.61.84,22.01.32,43.62,3.3,64.79,9.4,1.04.3,2.07.63,3.1.95,5.04,1.53,6.45,3.62,6.11,9.02Z"/>
      <path class="cls-7" d="m1209.88,242.55c-31.08,5.52-60.38,16.07-88.07,31.18-7.1,3.87-14.53,2.68-21.92.93-1.15-.27-1.34-1.12-1.26-2.11.25-2.99.49-5.98.78-8.97.12-1.24.7-2.16,1.9-2.72,25.74-11.92,51.23-24.44,78.91-31.48,8-2.04,16.09-3.54,24.3-4.48,5.45,3.82,7.48,10.52,5.37,17.66Z"/>
      <path class="cls-11" d="m897.78,26.1c1.11,1.55,1.01,3.06.96,4.57-.76,21.17-1.56,42.33-1.69,63.51-.01,2.34-.94,3.51-3.17,3.99-2.35.51-4.67,1.21-6.99,1.84-3.63.99-3.89.74-3.15-3.03,2.15-10.95,4.3-21.89,6.44-32.84,2.37-12.09,4.72-24.18,7.09-36.28.09-.48.27-.94.51-1.77Z"/>
      <path class="cls-9" d="m886.9,517.93c.06-3.8,5.19-9.59,8.52-10.11,1.89-.29,2.65.51,2.42,2.38-.4,3.28-4.9,8.43-8.09,9.19-1.63.39-2.85.11-2.85-1.47Z"/>
      <path class="cls-12" d="m889.76,488.43c-1.57.13-1.8-.81-1.65-2.06.36-2.95,5.11-7.81,7.99-8.23,1.25-.18,1.94.28,1.98,1.55.1,2.92-5.35,8.63-8.33,8.74Z"/>
      <path class="cls-10" d="m1065.84,162.86c.44.58.33,1.26.34,1.92.04,11.37.07,22.75.09,34.12,0,.72.23,1.51-.46,2.09-.03-11.72-.06-23.44-.08-35.15,0-.99.07-1.99.11-2.98Z"/>
      <path class="cls-6" d="m917.46,166.48c3.08.08,6.19-.5,9.23.37-3.08-.06-6.18.44-9.23-.37Z"/>
      <path class="cls-8" d="m1001.26,230.07c-2.71.68-5.46.37-8.19.32,2.71-.58,5.45-.46,8.19-.32Z"/>
      <path class="cls-8" d="m1012.88,230.39c-2.57.09-5.15.34-7.7-.31,2.58-.15,5.15-.24,7.7.31Z"/>
      <path class="cls-11" d="m87.52,364.44c0,21.61,0,43.22,0,64.84,0,4.13.52,8.12,3.2,11.52,3.32,4.22,7.99,5.77,13,6.54,8.89,1.36,17.79.43,26.67-.24,2.73-.2,5.5-.15,8.18-.91,5.92-1.68,9.16-6.29,9.57-13.35.55-9.43.42-18.85.09-28.27-.12-3.35.31-3.77,3.63-3.73,23.76.25,47.52.51,71.28.77,3.32.04,3.42.14,3.45,3.36.18,18.02.41,36.05.04,54.07-.12,5.58-1.76,10.63-5.74,14.75-12.52,12.96-24.79,26.15-36.85,39.53-1.93,2.14-4.08,3.1-6.98,3.1-39.19-.04-78.38-.03-117.56.03-2.97,0-5.26-.94-7.27-3.1-12.46-13.36-25.01-26.63-37.45-40-3.82-4.11-5.79-9.04-5.78-14.72.16-64.08.33-128.17.43-192.25,0-3.46,1.03-6.31,3.38-8.81,13.26-14.09,26.52-28.18,39.71-42.34,1.8-1.93,3.76-2.71,6.37-2.71,36.35-.01,72.71-.1,109.06-.15,2.58,0,5.19-.04,7.74.25,4.11.48,7.56,2.43,10.42,5.4,12.41,12.95,24.56,26.13,36.62,39.4,3.24,3.57,4.27,8.09,4.33,12.72.26,19.02-.07,38.04-.77,57.06-.08,2.12-.83,2.69-2.83,2.66-24.09-.28-48.19-.51-72.28-.68-2-.01-2.64-.7-2.57-2.64.23-6.25.49-12.51.46-18.76-.03-5.23-.46-10.43-1.79-15.57-1.51-5.86-5.14-9.31-10.97-10.02-12.51-1.52-25.04-1.91-37.58.13-6.92,1.12-9.22,5.98-10.68,11.83-.55,2.21-.53,4.46-.53,6.71,0,21.19,0,42.39,0,63.58h.01Z"/>
      <path class="cls-11" d="m497.94,212.98c4.16,0,5.14.99,5.12,5.15-.09,20.11-.18,40.22-.28,60.33-.02,3.53-.43,3.9-3.91,3.55-1.82-.19-3.64-.39-5.46-.61-3.12-.38-4.38,1.15-3.27,4.17,2.58,7,5.22,13.97,7.85,20.95,17.29,45.82,34.61,91.62,51.81,137.47,1,2.67,2.32,3.59,5.07,3.42,3.74-.23,7.5,0,11.25-.1,1.77-.05,2.31.62,2.3,2.34-.04,21.61-.05,43.23.01,64.84,0,2.2-1.17,2.17-2.69,2.16-9.34-.08-18.68-.15-28.02-.21-25.01-.15-50.03-.29-75.04-.44-3.25-.02-3.39-.15-3.36-3.43.16-20.86.35-41.72.46-62.58.01-2.1.77-2.79,2.79-2.74,6.53.15,5.66-.27,4.1-5.54-2.48-8.38-.52-6.89-9.41-6.93-22.1-.1-44.19-.04-66.29-.15-2.42-.01-3.67.72-4.2,3.1-.54,2.42-1.29,4.8-2.09,7.15-.58,1.69.06,2.34,1.65,2.45.08,0,.17,0,.25,0,7.61-.19,6.11.64,6.17,6.54.2,19.94.3,39.89.54,59.83.03,2.41-.68,3.21-3.12,3.18-34.35-.34-68.7-.62-103.05-.84-2.4-.02-3.25-.82-3.24-3.17.07-20.94.1-41.89.08-62.83,0-2.17.76-2.95,2.95-2.85,4,.19,8.01.05,12,.24,1.91.09,2.75-.61,3.42-2.38,9.25-24.67,18.59-49.32,27.9-73.97,10.74-28.45,21.48-56.9,32.23-85.35,1.34-3.55.57-4.64-3.3-4.64q-7.34.01-7.36-7.29c-.01-19.03-.01-38.05-.02-57.08,0-3.91.3-4.19,4.3-4.19"/>
      <path class="cls-11" d="m630.49,515.98c-3.26,0-3.54-.32-3.54-3.62,0-20.7.03-41.39-.05-62.09,0-2.23.47-3.07,2.88-3,5,.14,10-.09,15.01-.1,1.96,0,2.8-.67,2.79-2.79-.05-53-.05-105.99-.06-158.99,0-2.98-1.22-4.23-4.23-4.27-4.67-.06-9.34-.1-14.01-.02-1.76.03-2.33-.63-2.33-2.34,0-21.36,0-42.73-.08-64.09,0-1.83.69-2.21,2.36-2.22,56.71-.29,113.41-.33,170.12.04,5.24.03,9.79,1.73,13.4,5.61,12.44,13.38,24.88,26.75,37.28,40.17,2.1,2.28,3.09,5.09,3.07,8.22-.13,27.21-.28,54.41-.37,81.62-.01,3.64-1.28,6.56-3.77,9.17-12.82,13.48-25.6,26.99-38.33,40.56-2.54,2.71-5.53,3.74-9.13,3.74-24.1-.06-48.2-.07-72.3-.1-3.67,0-3.7,0-3.67,3.72.1,13.02.27,26.04.29,39.06,0,2.39.74,3.19,3.16,3.14,4.83-.09,9.67.22,14.5.23,2.17,0,2.94.94,2.93,3.03-.12,21.2-.24,42.4-.25,63.59,0,2.33-1.21,2.25-2.83,2.25"/>
      <path class="cls-4" d="m1073.9,210.54c.01-9.98.02-19.97.05-29.95,0-.23.16-.46.24-.7.1,10.22.35,20.44-.29,30.65Z"/>
      <path class="cls-5" d="m1067.36,244.51c0-3.33,0-6.67,0-10,.62,3.33.61,6.67,0,10Z"/>
      <path class="cls-2" d="m19.13,269.02c0-2.52.75-4.41,2.47-6.25,11.5-12.31,22.94-24.68,34.34-37.09,2.23-2.43,4.73-3.66,8.08-3.65,32.6.06,65.21.02,97.81.07,6.67,0,13.46.78,18.54,5.41,11.03,10.03,22.34,19.84,31.02,32.16,3.48,4.94,5.17,10.37,5.35,16.57.39,13.44.22,26.86-.14,40.29-.06,2.41-.87,3.13-3.26,3.12-17.26-.08-34.52-.02-51.78-.01-3.15,0-3.47-.28-3.3-3.48.37-7,.86-13.98-.03-20.98-1.26-9.88-6.2-17.4-14.46-22.84-.95-.62-1.94-.85-3.06-.86-14.1-.15-28.17.44-42.25,1.05-11.27.49-19.94,11.41-20.52,21.59-.27,4.75-.33,9.5-.33,14.26,0,38.22-.02,76.44,0,114.66,0,6-.08,12.08,2.01,17.8,3.37,9.2,9.85,14.95,19.75,16.07,12.96,1.48,25.98.82,38.93-.1,9.7-.69,17.72-9.6,19.42-20.32,1.17-7.38.86-14.8.7-22.22-.06-2.92.37-3.36,3.25-3.31,17.34.31,34.68.64,52.02.91,2.07.03,3,.74,3.01,2.94.02,14.44.19,28.87-.55,43.3-.3,5.9-2.5,10.95-6.81,15.09-9.88,9.47-19.43,19.26-28.65,29.38-2.78,3.06-6.02,4.36-10.15,4.34-35.77-.21-71.54-.35-107.31-.43-2.99,0-5.21-.98-7.23-3.17-9.58-10.34-19.2-20.65-28.93-30.84-4.78-5-7.17-10.53-7.1-17.68"/>
      <path class="cls-2" d="m462.82,506.65c1.7-.32,4.03-.09,4.91-1.11.86-1,.24-3.28.28-4.99.31-13.35.62-26.7.94-40.04.09-3.79.72-4.31,4.51-3.81.83.11,1.66.14,2.49.24,4.05.48,4.03.49,3.12-3.61-1.45-6.59-2.86-13.19-4.28-19.78-1.19-5.56-3.86-7.72-9.59-7.75-27.02-.15-54.03-.27-81.05-.51-2.37-.02-3.31.74-3.95,2.97-2.56,8.88-5.34,17.69-8.03,26.53-.19.62-.58,1.21-.27,2.06,2.77-.17,5.59-.39,8.41-.5,2.63-.1,3.5.73,3.51,3.32.08,14.77.14,29.54.18,44.31,0,2.85-.58,3.44-3.34,3.43-28.1-.1-56.2-.22-84.3-.35-2.86-.01-3.31-.49-3.31-3.42.02-14.52.06-29.04.11-43.56.01-2.79,1-3.76,3.76-3.76,2.58,0,5.19-.1,7.75.15,2.2.21,3.21-.54,3.99-2.62,9.78-26.11,19.65-52.18,29.5-78.26,12.43-32.93,24.87-65.87,37.3-98.8,1.6-4.23,1.3-4.66-3.31-4.68-2.67-.02-5.34-.06-8.01-.03-2.24.02-3.41-.91-3.42-3.26-.06-14.27-.17-28.54-.22-42.81-.01-3.3.87-4.15,4.19-4.14,41.86.05,83.72.11,125.58.18,3.04,0,3.81.79,3.8,3.9-.02,14.44-.06,28.87-.11,43.31-.01,2.88-.72,3.58-3.55,3.55-3.75-.03-7.5-.11-11.26-.15-3.19-.03-3.38.25-2.24,3.28,10.53,27.96,21.07,55.91,31.61,83.87,11.77,31.23,23.58,62.44,35.26,93.7.89,2.39,2.01,3.31,4.53,2.96,2.47-.34,4.99-.37,7.48-.47,2.48-.11,3.57.88,3.58,3.35.03,14.94.04,29.88.02,44.81,0,2.47-.9,3.25-3.64,3.25-10.01,0-20.01-.02-30.02-.05-17.26-.05-34.52-.12-51.78-.18-3.73-.01-7.46,0-11.2,0,.02-.17.04-.33.05-.5Z"/>
      <path class="cls-2" d="m657.61,275.34c0-3.43,0-3.45-3.37-3.6-4.91-.22-9.83-.46-14.74-.55-1.85-.03-2.46-.71-2.47-2.52-.05-14.43-.12-28.87-.29-43.3-.03-2.63,1.26-2.96,3.42-2.95,27.43.05,54.86.08,82.29.04,24.01-.03,48.02-.1,72.03-.3,5.73-.05,10.44,1.78,14.19,6.05,9.81,11.15,19.9,22.03,30.41,32.53,2.96,2.96,4.27,6.73,4.25,10.9-.16,24.78-.35,49.56-.53,74.34-.02,2.73-1.06,4.98-2.97,6.92-11.39,11.61-22.63,23.37-33.63,35.35-2.62,2.85-6.04,3.46-9.56,3.44-8.75-.04-17.5-.37-26.25-.46-17.01-.19-34.01-.07-51.02.52-2.99.1-3.84.93-3.82,3.94.14,19.52.32,39.05.4,58.57,0,2.11.82,2.74,2.81,2.77,4.83.07,9.66.4,14.5.44,2.41.02,3.12,1,3.12,3.32,0,14.27.12,28.53.2,42.8.02,3.13,0,3.14-3.25,3.11-29.35-.26-58.69-.52-88.04-.79-1.58-.01-3.17-.01-4.75-.02-3.53-.01-3.55-.01-3.51-3.46.14-12.26.29-24.53.43-36.79.02-1.75.12-3.51,0-5.25-.15-2.2.88-2.94,2.95-3,4.58-.13,9.16-.4,13.74-.6,3.22-.14,3.38-.29,3.38-3.48"/>
      <path class="cls-11" d="m426.11,385.6c-9.84,0-19.67,0-29.51,0-2.75,0-3.01-.36-2.05-2.87,10.03-26.45,20.06-52.89,30.11-79.33.33-.88.36-2.22,1.7-2.12,1.09.09,1.14,1.3,1.45,2.12,9.92,26.4,19.83,52.8,29.74,79.2,1.09,2.91.96,3.09-2.18,3.09-9.75,0-19.5,0-29.26,0v-.09Z"/>
      <path class="cls-11" d="m715.02,277.68c0-4.22,1.88-6.11,6.06-6.11,13.16,0,26.33-.19,39.49.05,12.88.23,24.26,11.53,24.98,24.34.44,7.82.85,15.69-.09,23.46-1.12,9.29-7.35,17.55-16.77,21.23-3.77,1.47-7.7,1.94-11.71,1.95-11.83.02-23.66.04-35.49.05-4.34,0-6.25-1.81-6.27-6.2"/>
      <path class="cls-2" d="m426.05,376.65c-4.92,0-9.83,0-14.75,0-3.64,0-4.37-1.09-3.12-4.46,5.06-13.64,10.09-27.3,15.14-40.94.29-.78.52-1.62.99-2.28,1.2-1.68,3.24-1.14,4.12,1.12,2.08,5.35,4.09,10.72,6.13,16.08,3.27,8.63,6.54,17.26,9.79,25.9,1.27,3.36.52,4.45-3.06,4.47-5.08.03-10.16,0-15.25,0v.11Z"/>
      <path class="cls-2" d="m744.94,281.55c4.83,0,9.66-.02,14.5,0,8.92.05,15.46,6.46,15.6,15.4.1,6.5.11,13.01.04,19.51-.09,8.71-5.98,15.25-14.65,15.55-10.65.36-21.33.16-31.99.18-2.4,0-2.78-1.63-2.78-3.57-.02-8.84-.06-17.68-.09-26.52-.02-5.67-.05-11.34-.04-17.01,0-2.6.82-3.45,3.41-3.47,5.33-.04,10.66-.01,16-.01v-.06Z"/>
      <path class="cls-11" d="m765.55,306.99c0,3.58.03,7.17,0,10.75-.03,3.25-1.99,5.31-5.26,5.34-6.66.06-13.33.04-19.99-.04-3.67-.04-5.71-2.14-5.72-5.78-.02-6.92-.01-13.84.04-20.75.03-3.98,2.05-5.91,6.05-5.91,6.33,0,12.66,0,18.99.02,4.12.01,5.96,1.8,6,5.88.04,3.5,0,7,0,10.5h-.11Z"/>
    </g>
  </g>
</svg>